<svg width="26" height="31" viewBox="0 0 26 31" fill="none" xmlns="http://www.w3.org/2000/svg">
<g id="two-factor-authentication-2fa-icon 1" clip-path="url(#clip0_3027_23020)">
<path id="Vector" fill-rule="evenodd" clip-rule="evenodd" d="M4.41101 18.8302H21.6465C23.3775 15.4863 24.219 11.1963 23.9596 5.9281C20.8425 6.21366 16.9835 4.77644 12.9635 2.21929C9.74745 4.7265 6.04655 5.97217 2.00835 5.76005C1.86605 11.2057 2.73623 15.5192 4.41101 18.8302ZM23.6493 18.8643C24.5153 19.0329 25.1753 19.8044 25.1753 20.7169V28.218C25.1753 29.2515 24.325 30.1053 23.2944 30.1053H2.70403C1.67398 30.1053 0.82371 29.2556 0.82371 28.218V20.7169C0.82371 19.7791 1.5188 18.9877 2.42353 18.8513C0.712449 15.0291 -0.141335 10.1352 0.0191157 3.99496C4.43092 4.22705 8.76015 3.26988 12.9547 0C17.8034 3.08362 22.1824 4.542 25.9412 4.19767C26.2346 10.1499 25.4171 15.0127 23.6493 18.8643ZM9.46695 10.416H9.81889V9.59871C9.81889 8.69384 10.1743 7.86888 10.7465 7.26954C11.3244 6.66551 12.1214 6.29063 12.9998 6.29063C13.8776 6.29063 14.6757 6.66551 15.2525 7.26954C15.8252 7.86888 16.1807 8.69325 16.1807 9.59871V10.416H16.532C16.8178 10.416 17.0515 10.6505 17.0515 10.9366V16.4399C17.0515 16.7266 16.8178 16.9611 16.532 16.9611H9.46695C9.18119 16.9611 8.94812 16.7266 8.94812 16.4399V10.9366C8.94754 10.6505 9.18119 10.416 9.46695 10.416ZM10.8009 10.416H15.1981V9.59871C15.1981 8.95472 14.948 8.37184 14.5457 7.95114C14.1481 7.53454 13.6006 7.27659 12.9992 7.27659C12.3984 7.27659 11.8503 7.53454 11.4533 7.95114C11.0504 8.37184 10.8009 8.95472 10.8009 9.59871V10.416ZM12.5735 13.9309L12.0137 15.4028H13.9859L13.4671 13.9104C13.7962 13.7406 14.0216 13.3962 14.0216 12.999C14.0216 12.4326 13.5643 11.9737 12.9992 11.9737C12.4353 11.9737 11.9779 12.4326 11.9779 12.999C11.9779 13.4121 12.2221 13.7688 12.5735 13.9309ZM6.16015 23.3816L5.94817 22.1653C6.63213 21.9585 7.31258 21.855 7.99128 21.855C8.2624 21.855 8.48844 21.8627 8.67056 21.8791C8.85209 21.8956 9.04065 21.9361 9.23623 22.0014C9.43123 22.0672 9.58583 22.1565 9.69943 22.2711C9.9606 22.5319 10.0906 22.9327 10.0906 23.4715C10.0906 24.0103 9.93835 24.4075 9.63443 24.6637C9.3311 24.9193 8.69047 25.2131 7.7143 25.5451V25.7742H10.0086V27.0804H5.83457V26.0598C5.83457 25.7548 5.89137 25.464 6.00497 25.186C6.07583 25.028 6.24682 24.8376 6.51794 24.6143C6.66434 24.4892 6.8611 24.3693 7.10763 24.2553C7.35475 24.1407 7.58781 24.0332 7.80799 23.9327C8.02758 23.8323 8.20502 23.7488 8.34087 23.6836V23.2429C8.09668 23.2159 7.87123 23.2018 7.66511 23.2018C7.16619 23.2018 6.66434 23.2617 6.16015 23.3816ZM14.3993 25.3241H13.0162V27.0804H11.3883V21.9767H14.7249L14.5211 23.284H13.0162V24.1072H14.3993V25.3241ZM16.662 27.0804H15.0136L16.3324 21.9767H18.8469L20.165 27.0804H18.5166L18.3292 26.2725H16.8494L16.662 27.0804ZM17.3724 23.5449L17.1422 24.9739H18.0282L17.8057 23.5449H17.3724Z" fill="white"/>
</g>
<defs>
<clipPath id="clip0_3027_23020">
<rect width="26" height="30.1053" fill="white"/>
</clipPath>
</defs>
</svg>
