<svg xmlns="http://www.w3.org/2000/svg" width="41" height="27" viewBox="0 0 41 27" fill="none">
  <path d="M6.99345 14.9774L1.73383 23.9695C1.31896 24.6788 1.83289 25.5702 2.65459 25.5665L39.0371 25.4044C39.9044 25.4006 40.4011 24.4144 39.8878 23.7152L33.3143 14.7607C32.9284 14.2351 32.1641 14.1785 31.7051 14.6417L21.6589 24.7778C21.2648 25.1755 20.6295 25.1985 20.2076 24.8306L8.60701 14.7134C8.10538 14.2759 7.32951 14.4028 6.99345 14.9774Z" fill="white"/>
  <path fill-rule="evenodd" clip-rule="evenodd" d="M36.06 3.41424L21.8191 17.7822C21.1877 18.4192 20.1548 18.4091 19.5361 17.7597L10.4429 9.8958L11.2112 9.1637L20.3043 17.0277C20.5106 17.2441 20.8549 17.2475 21.0653 17.0351L35.3063 2.66719L36.06 3.41424ZM32.6352 15.2025C32.4422 14.9397 32.0601 14.9114 31.8306 15.143L21.9852 25.0764L38.7834 25.0016C39.217 24.9997 39.4654 24.5066 39.2087 24.157L32.6352 15.2025ZM19.2981 25.0884L8.00687 15.241C7.75606 15.0223 7.36812 15.0858 7.20009 15.373L1.94047 24.3652C1.73303 24.7198 1.99 25.1655 2.40085 25.1637L19.2981 25.0884ZM31.0768 14.3959C31.7654 13.7012 32.9118 13.786 33.4906 14.5745L40.0642 23.529C40.8341 24.5777 40.0891 26.057 38.7881 26.0628L2.40558 26.2249C1.17303 26.2304 0.402129 24.8933 1.02444 23.8294L6.28406 14.8372C6.78814 13.9754 7.95195 13.785 8.70439 14.4413L20.305 24.5584C20.516 24.7424 20.8336 24.7309 21.0306 24.5321L31.0768 14.3959Z" fill="white"/>
  <path d="M38.923 3.22535C38.9308 4.98363 37.5118 6.41535 35.7535 6.42318C33.9952 6.43102 32.5635 5.012 32.5557 3.25372C32.5479 1.49544 33.9669 0.0637182 35.7252 0.0558848C37.4834 0.0480514 38.9152 1.46707 38.923 3.22535Z" fill="#0074E4"/>
</svg>