<svg width="17" height="21" viewBox="0 0 17 21" fill="none" xmlns="http://www.w3.org/2000/svg">
<path d="M16.4698 14.7554C16.3978 14.6687 16.3271 14.582 16.2578 14.4982C15.3036 13.3441 14.7263 12.6475 14.7263 9.38027C14.7263 7.68873 14.3216 6.30081 13.524 5.25986C12.9358 4.49087 12.1408 3.90751 11.0929 3.47638C11.0795 3.46888 11.0674 3.45904 11.0574 3.44732C10.6805 2.18518 9.64906 1.33984 8.4858 1.33984C7.32255 1.33984 6.29158 2.18518 5.91467 3.44602C5.90461 3.45731 5.89274 3.46684 5.87954 3.47421C3.43419 4.48089 2.24578 6.41228 2.24578 9.37897C2.24578 12.6475 1.66936 13.3441 0.714293 14.4969C0.644896 14.5806 0.574199 14.6657 0.5022 14.7541C0.316219 14.9784 0.198384 15.2513 0.162642 15.5405C0.126899 15.8296 0.174745 16.123 0.300517 16.3858C0.568127 16.9497 1.13848 17.2997 1.7895 17.2997H15.1869C15.8349 17.2997 16.4013 16.9501 16.6698 16.3889C16.7961 16.126 16.8444 15.8324 16.809 15.5429C16.7735 15.2534 16.6558 14.9801 16.4698 14.7554ZM8.4858 20.7708C9.11256 20.7703 9.72748 20.6002 10.2654 20.2785C10.8033 19.9567 11.244 19.4955 11.541 18.9435C11.555 18.9171 11.5619 18.8874 11.561 18.8575C11.5602 18.8276 11.5516 18.7984 11.5362 18.7728C11.5207 18.7472 11.4989 18.726 11.4728 18.7113C11.4468 18.6966 11.4174 18.6889 11.3874 18.6889H5.58504C5.55508 18.6888 5.52561 18.6965 5.49948 18.7111C5.47336 18.7258 5.45148 18.747 5.43598 18.7726C5.42048 18.7983 5.41187 18.8275 5.41101 18.8574C5.41015 18.8874 5.41706 18.917 5.43107 18.9435C5.72797 19.4954 6.16869 19.9566 6.70649 20.2783C7.24429 20.6 7.85913 20.7702 8.4858 20.7708Z" fill="white"/>
<circle cx="12.9801" cy="4.44619" r="3.1724" fill="#FF0000" stroke="#0D1321" stroke-width="1.5862"/>
</svg>
