<svg width="18" height="18" viewBox="0 0 18 18" fill="none" xmlns="http://www.w3.org/2000/svg">
<path d="M8.70961 0.595459C9.83144 0.595459 10.9073 1.0411 11.7006 1.83436C12.4938 2.62761 12.9395 3.7035 12.9395 4.82533C12.9395 5.94716 12.4938 7.02304 11.7006 7.81629C10.9073 8.60955 9.83144 9.05519 8.70961 9.05519C7.58778 9.05519 6.5119 8.60955 5.71864 7.81629C4.92539 7.02304 4.47974 5.94716 4.47974 4.82533C4.47974 3.7035 4.92539 2.62761 5.71864 1.83436C6.5119 1.0411 7.58778 0.595459 8.70961 0.595459ZM8.70961 17.5149C8.70961 17.5149 17.1693 17.5149 17.1693 15.4C17.1693 12.8621 13.0452 10.1127 8.70961 10.1127C4.374 10.1127 0.249878 12.8621 0.249878 15.4C0.249878 17.5149 8.70961 17.5149 8.70961 17.5149Z" fill="white"/>
</svg>
