<svg width="27" height="28" viewBox="0 0 27 28" fill="none" xmlns="http://www.w3.org/2000/svg">
<path d="M24.6522 25.1522L18.2795 18.7796M11.9068 21.9659C10.6515 21.9659 9.40851 21.7187 8.24876 21.2383C7.089 20.7579 6.03523 20.0538 5.14759 19.1661C4.25996 18.2785 3.55585 17.2247 3.07546 16.065C2.59508 14.9052 2.34782 13.6622 2.34782 12.4069C2.34782 11.1516 2.59508 9.90859 3.07546 8.74883C3.55585 7.58908 4.25996 6.5353 5.14759 5.64767C6.03523 4.76003 7.089 4.05592 8.24876 3.57554C9.40851 3.09515 10.6515 2.8479 11.9068 2.8479C14.442 2.8479 16.8734 3.85501 18.6661 5.64767C20.4587 7.44033 21.4658 9.8717 21.4658 12.4069C21.4658 14.9421 20.4587 17.3735 18.6661 19.1661C16.8734 20.9588 14.442 21.9659 11.9068 21.9659Z" stroke="white" stroke-width="1.5"/>
</svg>
