<svg width="22" height="22" viewBox="0 0 22 22" fill="none" xmlns="http://www.w3.org/2000/svg">
<g id="icon/star" clip-path="url(#clip0_2976_47110)">
<g id="Star 2">
<mask id="path-1-inside-1_2976_47110" fill="white">
<path d="M10.8607 0.93103L10.8667 11.1428L20.5805 7.99291L10.8704 11.1542L16.8679 19.4193L10.8607 11.1613L4.85348 19.4193L10.851 11.1542L1.14083 7.99291L10.8547 11.1428L10.8607 0.93103Z"/>
</mask>
<path d="M10.8607 0.93103L12.1382 0.930279H9.58317L10.8607 0.93103ZM10.8667 11.1428L9.58918 11.1436L9.59021 12.8997L11.2607 12.358L10.8667 11.1428ZM20.5805 7.99291L20.976 9.20766L20.1865 6.7777L20.5805 7.99291ZM10.8704 11.1542L10.4749 9.93949L8.80502 10.4832L9.83643 11.9045L10.8704 11.1542ZM16.8679 19.4193L15.8348 20.1708L17.9018 18.669L16.8679 19.4193ZM10.8607 11.1613L11.8938 10.4098L10.8607 8.98963L9.82759 10.4098L10.8607 11.1613ZM4.85348 19.4193L3.81951 18.669L5.88656 20.1708L4.85348 19.4193ZM10.851 11.1542L11.8849 11.9045L12.9163 10.4832L11.2464 9.93949L10.851 11.1542ZM1.14083 7.99291L1.53489 6.7777L0.745344 9.20766L1.14083 7.99291ZM10.8547 11.1428L10.4606 12.358L12.1311 12.8997L12.1322 11.1436L10.8547 11.1428ZM9.58317 0.931782L9.58918 11.1436L12.1442 11.1421L12.1382 0.930279L9.58317 0.931782ZM11.2607 12.358L20.9746 9.20812L20.1865 6.7777L10.4726 9.9276L11.2607 12.358ZM20.185 6.77816L10.4749 9.93949L11.2659 12.369L20.976 9.20766L20.185 6.77816ZM9.83643 11.9045L15.8339 20.1696L17.9018 18.669L11.9044 10.4039L9.83643 11.9045ZM17.901 18.6678L11.8938 10.4098L9.82759 11.9128L15.8348 20.1708L17.901 18.6678ZM9.82759 10.4098L3.8204 18.6678L5.88656 20.1708L11.8938 11.9128L9.82759 10.4098ZM5.88745 20.1696L11.8849 11.9045L9.81699 10.4039L3.81951 18.669L5.88745 20.1696ZM11.2464 9.93949L1.53632 6.77816L0.745344 9.20766L10.4555 12.369L11.2464 9.93949ZM0.746774 9.20812L10.4606 12.358L11.2487 9.9276L1.53489 6.7777L0.746774 9.20812ZM12.1322 11.1436L12.1382 0.931782L9.58317 0.930279L9.57716 11.1421L12.1322 11.1436Z" fill="#FFC24C" mask="url(#path-1-inside-1_2976_47110)"/>
</g>
</g>
<defs>
<clipPath id="clip0_2976_47110">
<rect width="20.4401" height="20.4401" fill="white" transform="translate(0.640625 0.930664)"/>
</clipPath>
</defs>
</svg>
