<svg xmlns="http://www.w3.org/2000/svg" width="38" height="37" viewBox="0 0 38 37" fill="none">
  <path d="M25.0389 24.1557L18.9999 18.1167L12.9609 24.1557" stroke="white" stroke-opacity="0.4" stroke-width="1.50974" stroke-linecap="round" stroke-linejoin="round"/>
  <path d="M19 18.1167V31.7044" stroke="white" stroke-opacity="0.4" stroke-width="1.50974" stroke-linecap="round" stroke-linejoin="round"/>
  <path d="M31.6667 27.7639C33.1392 26.9611 34.3024 25.6909 34.9728 24.1536C35.6432 22.6162 35.7825 20.8995 35.3689 19.2742C34.9552 17.6489 34.012 16.2076 32.6883 15.1779C31.3645 14.1481 29.7355 13.5886 28.0584 13.5874H26.1561C25.6991 11.8199 24.8474 10.179 23.665 8.78797C22.4825 7.39698 21.0001 6.29216 19.3292 5.55655C17.6583 4.82093 15.8424 4.47369 14.018 4.54091C12.1936 4.60812 10.4081 5.08806 8.79589 5.94464C7.18365 6.80121 5.78658 8.01213 4.70969 9.48636C3.63281 10.9606 2.90415 12.6598 2.57848 14.4561C2.25282 16.2525 2.33862 18.0993 2.82945 19.8578C3.32028 21.6162 4.20336 23.2405 5.4123 24.6085" stroke="white" stroke-opacity="0.4" stroke-width="1.50974" stroke-linecap="round" stroke-linejoin="round"/>
  <path d="M25.0779 24.039L19.039 18L13 24.039" stroke="white" stroke-opacity="0.4" stroke-width="1.50974" stroke-linecap="round" stroke-linejoin="round"/>
</svg>