<svg width="15" height="11" viewBox="0 0 15 11" fill="none" xmlns="http://www.w3.org/2000/svg">
<path id="Vector" d="M12.5977 0.914167C11.711 0.488029 10.751 0.178735 9.75098 3.16155e-05C9.74221 -0.000257474 9.73349 0.00143889 9.72542 0.00500146C9.71736 0.00856403 9.71015 0.0139063 9.70431 0.0206514C9.5843 0.247467 9.4443 0.543014 9.35096 0.76983C8.29027 0.604873 7.21157 0.604873 6.15088 0.76983C6.05754 0.536141 5.91754 0.247467 5.79087 0.0206514C5.7842 0.00690496 5.7642 3.16155e-05 5.7442 3.16155e-05C4.74417 0.178735 3.79081 0.488029 2.89745 0.914167C2.89079 0.914167 2.88412 0.92104 2.87745 0.927914C1.06407 3.72531 0.564057 6.44709 0.810731 9.14139C0.810731 9.15513 0.817398 9.16888 0.830731 9.17575C2.03076 10.083 3.18413 10.6329 4.32416 10.9972C4.34416 11.004 4.36416 10.9972 4.37083 10.9834C4.6375 10.6054 4.87751 10.2067 5.08418 9.78747C5.09752 9.75998 5.08418 9.73248 5.05751 9.72561C4.6775 9.5744 4.31749 9.3957 3.96415 9.1895C3.93748 9.17575 3.93748 9.13451 3.95748 9.1139C4.03082 9.05891 4.10415 8.99705 4.17749 8.94207C4.19082 8.92832 4.21082 8.92832 4.22416 8.93519C6.51755 10.0143 8.99096 10.0143 11.2577 8.93519C11.271 8.92832 11.291 8.92832 11.3044 8.94207C11.3777 9.00392 11.451 9.05891 11.5244 9.12077C11.551 9.14139 11.551 9.18263 11.5177 9.19637C11.171 9.40944 10.8043 9.58127 10.4243 9.73248C10.3977 9.73936 10.391 9.77372 10.3977 9.79434C10.611 10.2136 10.851 10.6123 11.111 10.9903C11.131 10.9972 11.151 11.004 11.171 10.9972C12.3177 10.6329 13.4711 10.083 14.6711 9.17575C14.6844 9.16888 14.6911 9.15513 14.6911 9.14139C14.9845 6.02783 14.2044 3.32666 12.6244 0.927914C12.6177 0.92104 12.6111 0.914167 12.5977 0.914167ZM5.43086 7.49869C4.74417 7.49869 4.17082 6.84574 4.17082 6.04157C4.17082 5.23741 4.73084 4.58446 5.43086 4.58446C6.13754 4.58446 6.69756 5.24428 6.69089 6.04157C6.69089 6.84574 6.13088 7.49869 5.43086 7.49869ZM10.0777 7.49869C9.39097 7.49869 8.81762 6.84574 8.81762 6.04157C8.81762 5.23741 9.37763 4.58446 10.0777 4.58446C10.7843 4.58446 11.3444 5.24428 11.3377 6.04157C11.3377 6.84574 10.7843 7.49869 10.0777 7.49869Z" fill="black"/>
</svg>
