<svg width="38" height="38" viewBox="0 0 38 38" fill="none" xmlns="http://www.w3.org/2000/svg">
<g id="Facebook">
<rect id="background" width="38" height="38" rx="6" fill="#4267B2" fill-opacity="0.16"/>
<path id="Vector" d="M28 19C28 14.05 23.95 10 19 10C14.05 10 10 14.05 10 19C10 23.5 13.2625 27.2125 17.5375 27.8875V21.5875H15.2875V19H17.5375V16.975C17.5375 14.725 18.8875 13.4875 20.9125 13.4875C21.925 13.4875 22.9375 13.7125 22.9375 13.7125V15.9625H21.8125C20.6875 15.9625 20.35 16.6375 20.35 17.3125V19H22.825L22.375 21.5875H20.2375V28C24.7375 27.325 28 23.5 28 19Z" fill="#4267B2"/>
</g>
</svg>
