<svg width="12" height="13" viewBox="0 0 12 13" fill="none" xmlns="http://www.w3.org/2000/svg">
<path d="M8.97899 2.03667C8.49944 1.47306 8.23517 0.749257 8.23537 0H6.06764V8.95555C6.05092 9.44018 5.85218 9.89923 5.51327 10.236C5.17436 10.5728 4.72172 10.761 4.25068 10.7611C3.2545 10.7611 2.4267 9.92333 2.4267 8.88333C2.4267 7.64111 3.59124 6.70944 4.79086 7.09222V4.81C2.37058 4.47778 0.251953 6.41333 0.251953 8.88333C0.251953 11.2883 2.18818 13 4.24366 13C6.44647 13 8.23537 11.1583 8.23537 8.88333V4.34056C9.11439 4.99045 10.1697 5.33913 11.252 5.33722V3.10556C11.252 3.10556 9.93308 3.17056 8.97899 2.03667Z" fill="black"/>
</svg>
