<svg width="23" height="24" viewBox="0 0 23 24" fill="none" xmlns="http://www.w3.org/2000/svg">
<g id="components">
<g id="Path">
<path fill-rule="evenodd" clip-rule="evenodd" d="M3.01282 11.9985L5.77505 14.7362L8.51277 11.974L5.75055 9.23628L3.01282 11.9985Z" stroke="#8692D0" stroke-width="1.5" stroke-linecap="round" stroke-linejoin="round"/>
<path fill-rule="evenodd" clip-rule="evenodd" d="M3.01282 11.9985L5.77505 14.7362L8.51277 11.974L5.75055 9.23628L3.01282 11.9985Z" stroke="white" stroke-opacity="0.4" stroke-width="1.5" stroke-linecap="round" stroke-linejoin="round"/>
</g>
<g id="Path_2">
<path fill-rule="evenodd" clip-rule="evenodd" d="M14.0127 11.9497L16.7749 14.6874L19.5127 11.9252L16.7504 9.18746L14.0127 11.9497Z" stroke="#8692D0" stroke-width="1.5" stroke-linecap="round" stroke-linejoin="round"/>
<path fill-rule="evenodd" clip-rule="evenodd" d="M14.0127 11.9497L16.7749 14.6874L19.5127 11.9252L16.7504 9.18746L14.0127 11.9497Z" stroke="white" stroke-opacity="0.4" stroke-width="1.5" stroke-linecap="round" stroke-linejoin="round"/>
</g>
<g id="Path_3">
<path fill-rule="evenodd" clip-rule="evenodd" d="M8.48826 6.47409L11.2505 9.21182L13.9882 6.44959L11.226 3.71187L8.48826 6.47409Z" stroke="#8692D0" stroke-width="1.5" stroke-linecap="round" stroke-linejoin="round"/>
<path fill-rule="evenodd" clip-rule="evenodd" d="M8.48826 6.47409L11.2505 9.21182L13.9882 6.44959L11.226 3.71187L8.48826 6.47409Z" stroke="white" stroke-opacity="0.4" stroke-width="1.5" stroke-linecap="round" stroke-linejoin="round"/>
</g>
<g id="Path_4">
<path fill-rule="evenodd" clip-rule="evenodd" d="M8.53727 17.4741L11.2995 20.2118L14.0372 17.4496L11.275 14.7119L8.53727 17.4741Z" stroke="#8692D0" stroke-width="1.5" stroke-linecap="round" stroke-linejoin="round"/>
<path fill-rule="evenodd" clip-rule="evenodd" d="M8.53727 17.4741L11.2995 20.2118L14.0372 17.4496L11.275 14.7119L8.53727 17.4741Z" stroke="white" stroke-opacity="0.4" stroke-width="1.5" stroke-linecap="round" stroke-linejoin="round"/>
</g>
</g>
</svg>
