<svg width="23" height="23" viewBox="0 0 23 23" fill="none" xmlns="http://www.w3.org/2000/svg">
<g id="file-text">
<g id="Path">
<path d="M12.9944 3.60535L13.0108 7.27198C13.013 7.77823 13.4253 8.18681 13.9315 8.18455L17.5982 8.16822" stroke="#8692D0" stroke-width="1.5" stroke-linecap="round" stroke-linejoin="round"/>
<path d="M12.9944 3.60535L13.0108 7.27198C13.013 7.77823 13.4253 8.18681 13.9315 8.18455L17.5982 8.16822" stroke="white" stroke-opacity="0.4" stroke-width="1.5" stroke-linecap="round" stroke-linejoin="round"/>
</g>
<g id="Path_2">
<path fill-rule="evenodd" clip-rule="evenodd" d="M15.8179 20.093L6.65135 20.1339C5.63884 20.1384 4.81438 19.3212 4.80987 18.3087L4.7527 5.47553C4.74819 4.46302 5.56533 3.63856 6.57784 3.63404L12.9944 3.60546L17.5982 8.16833L17.6431 18.2516C17.6476 19.2641 16.8304 20.0885 15.8179 20.093Z" stroke="#8692D0" stroke-width="1.5" stroke-linecap="round" stroke-linejoin="round"/>
<path fill-rule="evenodd" clip-rule="evenodd" d="M15.8179 20.093L6.65135 20.1339C5.63884 20.1384 4.81438 19.3212 4.80987 18.3087L4.7527 5.47553C4.74819 4.46302 5.56533 3.63856 6.57784 3.63404L12.9944 3.60546L17.5982 8.16833L17.6431 18.2516C17.6476 19.2641 16.8304 20.0885 15.8179 20.093Z" stroke="white" stroke-opacity="0.4" stroke-width="1.5" stroke-linecap="round" stroke-linejoin="round"/>
</g>
<g id="Path_3">
<path d="M8.43566 9.12581L9.35232 9.12173" stroke="#8692D0" stroke-width="1.5" stroke-linecap="round" stroke-linejoin="round"/>
<path d="M8.43566 9.12581L9.35232 9.12173" stroke="white" stroke-opacity="0.4" stroke-width="1.5" stroke-linecap="round" stroke-linejoin="round"/>
</g>
<g id="Path_4">
<path d="M8.45199 12.7924L13.9519 12.7679" stroke="#8692D0" stroke-width="1.5" stroke-linecap="round" stroke-linejoin="round"/>
<path d="M8.45199 12.7924L13.9519 12.7679" stroke="white" stroke-opacity="0.4" stroke-width="1.5" stroke-linecap="round" stroke-linejoin="round"/>
</g>
<g id="Path_5">
<path d="M8.46833 16.4591L13.9683 16.4346" stroke="#8692D0" stroke-width="1.5" stroke-linecap="round" stroke-linejoin="round"/>
<path d="M8.46833 16.4591L13.9683 16.4346" stroke="white" stroke-opacity="0.4" stroke-width="1.5" stroke-linecap="round" stroke-linejoin="round"/>
</g>
</g>
</svg>
