<svg width="23" height="24" viewBox="0 0 23 24" fill="none" xmlns="http://www.w3.org/2000/svg">
<g id="device-gamepad">
<g id="Rectangle">
<rect x="2.73514" y="6.50562" width="18.3333" height="11" rx="2" transform="rotate(-0.255259 2.73514 6.50562)" stroke="#8692D0" stroke-width="1.5" stroke-linecap="round" stroke-linejoin="round"/>
<rect x="2.73514" y="6.50562" width="18.3333" height="11" rx="2" transform="rotate(-0.255259 2.73514 6.50562)" stroke="white" stroke-opacity="0.6" stroke-width="1.5" stroke-linecap="round" stroke-linejoin="round"/>
</g>
<g id="Shape">
<path d="M6.42293 11.2393C6.00872 11.2412 5.67444 11.5785 5.67628 11.9927C5.67813 12.4069 6.01541 12.7412 6.42962 12.7393L6.42293 11.2393ZM10.0962 12.723C10.5105 12.7211 10.8447 12.3839 10.8429 11.9696C10.8411 11.5554 10.5038 11.2211 10.0896 11.223L10.0962 12.723ZM9.00141 10.1445C8.99957 9.73029 8.66229 9.396 8.24808 9.39785C7.83387 9.39969 7.49958 9.73697 7.50143 10.1512L9.00141 10.1445ZM7.51776 13.8178C7.51961 14.232 7.85689 14.5663 8.2711 14.5645C8.68531 14.5626 9.01959 14.2253 9.01775 13.8111L7.51776 13.8178ZM6.42962 12.7393L10.0962 12.723L10.0896 11.223L6.42293 11.2393L6.42962 12.7393ZM7.50143 10.1512L7.51776 13.8178L9.01775 13.8111L9.00141 10.1445L7.50143 10.1512Z" fill="#8692D0"/>
<path d="M6.42293 11.2393C6.00872 11.2412 5.67444 11.5785 5.67628 11.9927C5.67813 12.4069 6.01541 12.7412 6.42962 12.7393L6.42293 11.2393ZM10.0962 12.723C10.5105 12.7211 10.8447 12.3839 10.8429 11.9696C10.8411 11.5554 10.5038 11.2211 10.0896 11.223L10.0962 12.723ZM9.00141 10.1445C8.99957 9.73029 8.66229 9.396 8.24808 9.39785C7.83387 9.39969 7.49958 9.73697 7.50143 10.1512L9.00141 10.1445ZM7.51776 13.8178C7.51961 14.232 7.85689 14.5663 8.2711 14.5645C8.68531 14.5626 9.01959 14.2253 9.01775 13.8111L7.51776 13.8178ZM6.42962 12.7393L10.0962 12.723L10.0896 11.223L6.42293 11.2393L6.42962 12.7393ZM7.50143 10.1512L7.51776 13.8178L9.01775 13.8111L9.00141 10.1445L7.50143 10.1512Z" fill="white" fill-opacity="0.6"/>
</g>
<g id="Path">
<path d="M14.6721 11.0359L14.6721 11.0451" stroke="#8692D0" stroke-width="1.5" stroke-linecap="round" stroke-linejoin="round"/>
<path d="M14.6721 11.0359L14.6721 11.0451" stroke="white" stroke-opacity="0.6" stroke-width="1.5" stroke-linecap="round" stroke-linejoin="round"/>
</g>
<g id="Path_2">
<path d="M17.4302 12.857L17.4303 12.8661" stroke="#8692D0" stroke-width="1.5" stroke-linecap="round" stroke-linejoin="round"/>
<path d="M17.4302 12.857L17.4303 12.8661" stroke="white" stroke-opacity="0.6" stroke-width="1.5" stroke-linecap="round" stroke-linejoin="round"/>
</g>
</g>
</svg>
