<svg width="23" height="24" viewBox="0 0 23 24" fill="none" xmlns="http://www.w3.org/2000/svg">
<g id="device-mobile-message">
<g id="Path">
<path fill-rule="evenodd" clip-rule="evenodd" d="M10.1688 3.71851L19.3354 3.67767L19.3681 11.0109L16.6181 11.0232L12.9596 12.8728L12.9515 11.0395L10.2015 11.0518L10.1688 3.71851Z" stroke="#8692D0" stroke-width="1.5" stroke-linecap="round" stroke-linejoin="round"/>
<path fill-rule="evenodd" clip-rule="evenodd" d="M10.1688 3.71851L19.3354 3.67767L19.3681 11.0109L16.6181 11.0232L12.9596 12.8728L12.9515 11.0395L10.2015 11.0518L10.1688 3.71851Z" stroke="white" stroke-opacity="0.6" stroke-width="1.5" stroke-linecap="round" stroke-linejoin="round"/>
</g>
<g id="Path_2">
<path d="M13.8885 15.6188L13.9049 19.2854C13.9071 19.7917 13.4986 20.2039 12.9923 20.2062L5.65905 20.2389C5.15279 20.2411 4.74056 19.8325 4.73831 19.3263L4.68113 6.49307C4.67888 5.98682 5.08745 5.57459 5.59371 5.57233L7.42702 5.56416" stroke="#8692D0" stroke-width="1.5" stroke-linecap="round" stroke-linejoin="round"/>
<path d="M13.8885 15.6188L13.9049 19.2854C13.9071 19.7917 13.4986 20.2039 12.9923 20.2062L5.65905 20.2389C5.15279 20.2411 4.74056 19.8325 4.73831 19.3263L4.68113 6.49307C4.67888 5.98682 5.08745 5.57459 5.59371 5.57233L7.42702 5.56416" stroke="white" stroke-opacity="0.6" stroke-width="1.5" stroke-linecap="round" stroke-linejoin="round"/>
</g>
<g id="Path_3">
<path d="M9.31342 17.4725L9.31346 17.4816" stroke="#8692D0" stroke-width="1.5" stroke-linecap="round" stroke-linejoin="round"/>
<path d="M9.31342 17.4725L9.31346 17.4816" stroke="white" stroke-opacity="0.6" stroke-width="1.5" stroke-linecap="round" stroke-linejoin="round"/>
</g>
</g>
</svg>
