<svg width="23" height="24" viewBox="0 0 23 24" fill="none" xmlns="http://www.w3.org/2000/svg">
<g id="settings">
<g id="Path">
<path fill-rule="evenodd" clip-rule="evenodd" d="M9.49994 4.92659C9.88326 3.3152 12.1731 3.305 12.5707 4.91291C12.6918 5.40285 13.0395 5.80552 13.5066 5.9966C13.9737 6.18769 14.5039 6.14419 14.9337 5.87956C16.3442 5.0116 17.9712 6.6232 17.1158 8.04236C16.8554 8.47422 16.8167 9.00444 17.0117 9.46952C17.2067 9.93459 17.612 10.2787 18.1026 10.3957C19.7139 10.779 19.7242 13.0688 18.1162 13.4665C17.6263 13.5875 17.2236 13.9352 17.0325 14.4023C16.8415 14.8694 16.885 15.3997 17.1496 15.8294C18.0175 17.2399 16.4059 18.8669 14.9868 18.0115C14.5549 17.7511 14.0247 17.7124 13.5596 17.9075C13.0946 18.1025 12.7505 18.5077 12.6335 18.9983C12.2502 20.6097 9.96036 20.6199 9.56269 19.012C9.44167 18.522 9.09393 18.1193 8.62684 17.9283C8.15975 17.7372 7.62949 17.7807 7.19978 18.0453C5.78921 18.9133 4.16227 17.3017 5.01762 15.8825C5.27804 15.4506 5.3167 14.9204 5.1217 14.4553C4.92669 13.9903 4.52143 13.6462 4.03088 13.5292C2.41949 13.1459 2.40929 10.8561 4.0172 10.4584C4.50713 10.3374 4.90981 9.98964 5.10089 9.52256C5.29197 9.05547 5.24848 8.52521 4.98385 8.09549C4.11589 6.68493 5.72749 5.05798 7.14665 5.91334C8.06579 6.46658 9.25158 5.96813 9.49994 4.92659Z" stroke="#8692D0" stroke-width="1.5" stroke-linecap="round" stroke-linejoin="round"/>
<path fill-rule="evenodd" clip-rule="evenodd" d="M9.49994 4.92659C9.88326 3.3152 12.1731 3.305 12.5707 4.91291C12.6918 5.40285 13.0395 5.80552 13.5066 5.9966C13.9737 6.18769 14.5039 6.14419 14.9337 5.87956C16.3442 5.0116 17.9712 6.6232 17.1158 8.04236C16.8554 8.47422 16.8167 9.00444 17.0117 9.46952C17.2067 9.93459 17.612 10.2787 18.1026 10.3957C19.7139 10.779 19.7242 13.0688 18.1162 13.4665C17.6263 13.5875 17.2236 13.9352 17.0325 14.4023C16.8415 14.8694 16.885 15.3997 17.1496 15.8294C18.0175 17.2399 16.4059 18.8669 14.9868 18.0115C14.5549 17.7511 14.0247 17.7124 13.5596 17.9075C13.0946 18.1025 12.7505 18.5077 12.6335 18.9983C12.2502 20.6097 9.96036 20.6199 9.56269 19.012C9.44167 18.522 9.09393 18.1193 8.62684 17.9283C8.15975 17.7372 7.62949 17.7807 7.19978 18.0453C5.78921 18.9133 4.16227 17.3017 5.01762 15.8825C5.27804 15.4506 5.3167 14.9204 5.1217 14.4553C4.92669 13.9903 4.52143 13.6462 4.03088 13.5292C2.41949 13.1459 2.40929 10.8561 4.0172 10.4584C4.50713 10.3374 4.90981 9.98964 5.10089 9.52256C5.29197 9.05547 5.24848 8.52521 4.98385 8.09549C4.11589 6.68493 5.72749 5.05798 7.14665 5.91334C8.06579 6.46658 9.25158 5.96813 9.49994 4.92659Z" stroke="white" stroke-opacity="0.4" stroke-width="1.5" stroke-linecap="round" stroke-linejoin="round"/>
</g>
<g id="Oval">
<circle cx="11.0667" cy="11.9623" r="2.75" transform="rotate(-0.255259 11.0667 11.9623)" stroke="#8692D0" stroke-width="1.5" stroke-linecap="round" stroke-linejoin="round"/>
<circle cx="11.0667" cy="11.9623" r="2.75" transform="rotate(-0.255259 11.0667 11.9623)" stroke="white" stroke-opacity="0.4" stroke-width="1.5" stroke-linecap="round" stroke-linejoin="round"/>
</g>
</g>
</svg>
