<svg width="23" height="24" viewBox="0 0 23 24" fill="none" xmlns="http://www.w3.org/2000/svg">
<g id="shopping-cart">
<g id="Oval">
<ellipse cx="6.25883" cy="18.4064" rx="1.83333" ry="1.83333" transform="rotate(-0.255259 6.25883 18.4064)" stroke="#8692D0" stroke-width="1.5" stroke-linecap="round" stroke-linejoin="round"/>
<ellipse cx="6.25883" cy="18.4064" rx="1.83333" ry="1.83333" transform="rotate(-0.255259 6.25883 18.4064)" stroke="white" stroke-opacity="0.6" stroke-width="1.5" stroke-linecap="round" stroke-linejoin="round"/>
</g>
<g id="Oval_2">
<ellipse cx="16.3421" cy="18.3615" rx="1.83333" ry="1.83333" transform="rotate(-0.255259 16.3421 18.3615)" stroke="#8692D0" stroke-width="1.5" stroke-linecap="round" stroke-linejoin="round"/>
<ellipse cx="16.3421" cy="18.3615" rx="1.83333" ry="1.83333" transform="rotate(-0.255259 16.3421 18.3615)" stroke="white" stroke-opacity="0.6" stroke-width="1.5" stroke-linecap="round" stroke-linejoin="round"/>
</g>
<g id="Path">
<path d="M16.3339 16.5282L6.25066 16.5731L6.19349 3.73988L4.36018 3.74805" stroke="#8692D0" stroke-width="1.5" stroke-linecap="round" stroke-linejoin="round"/>
<path d="M16.3339 16.5282L6.25066 16.5731L6.19349 3.73988L4.36018 3.74805" stroke="white" stroke-opacity="0.6" stroke-width="1.5" stroke-linecap="round" stroke-linejoin="round"/>
</g>
<g id="Path_2">
<path d="M6.20166 5.57324L19.039 6.43273L18.1509 12.8534L6.23433 12.9065" stroke="#8692D0" stroke-width="1.5" stroke-linecap="round" stroke-linejoin="round"/>
<path d="M6.20166 5.57324L19.039 6.43273L18.1509 12.8534L6.23433 12.9065" stroke="white" stroke-opacity="0.6" stroke-width="1.5" stroke-linecap="round" stroke-linejoin="round"/>
</g>
</g>
</svg>
